<svg xmlns="http://www.w3.org/2000/svg" xmlns:xlink="http://www.w3.org/1999/xlink" width="1212.781" height="516.654" viewBox="0 0 1212.781 516.654"><defs><style>.a{opacity:0.1;}.b,.g,.h,.i,.j,.k,.l,.o,.p,.r,.s{opacity:0.5;}.b{fill:url(#a);}.c,.d,.e,.f,.m,.q,.t{opacity:0.8;}.c{fill:url(#b);}.d{fill:url(#c);}.e{fill:url(#d);}.f{fill:url(#e);}.g{fill:url(#f);}.h{fill:url(#g);}.i{fill:url(#h);}.j{fill:url(#i);}.k{fill:url(#j);}.l{fill:url(#k);}.m{fill:url(#l);}.n{opacity:0.3;fill:url(#m);}.o{fill:url(#n);}.p{fill:url(#o);}.q{fill:url(#p);}.r{fill:url(#q);}.s{fill:url(#r);}.t{fill:url(#s);}</style><linearGradient id="a" x1="12.896" y1="0.483" x2="-5.738" y2="0.508" gradientUnits="objectBoundingBox"><stop offset="0" stop-color="#00bdff"/><stop offset="0.24" stop-color="#00b8ff"/><stop offset="0.488" stop-color="#00acff"/><stop offset="0.74" stop-color="#0097ff"/><stop offset="0.993" stop-color="#007aff"/><stop offset="1" stop-color="#007aff"/></linearGradient><linearGradient id="b" x1="13.717" y1="0.482" x2="-4.917" y2="0.507" xlink:href="#a"/><linearGradient id="c" x1="10.375" y1="0.487" x2="-8.26" y2="0.512" xlink:href="#a"/><linearGradient id="d" x1="10.374" y1="0.487" x2="-8.261" y2="0.512" xlink:href="#a"/><linearGradient id="e" x1="14.565" y1="0.481" x2="-4.07" y2="0.506" xlink:href="#a"/><linearGradient id="f" x1="14.206" y1="0.482" x2="-3.955" y2="0.506" xlink:href="#a"/><linearGradient id="g" x1="15.02" y1="0.481" x2="-3.141" y2="0.505" xlink:href="#a"/><linearGradient id="h" x1="16.624" y1="0.478" x2="-1.537" y2="0.503" xlink:href="#a"/><linearGradient id="i" x1="15.834" y1="0.479" x2="-2.327" y2="0.504" xlink:href="#a"/><linearGradient id="j" x1="13.382" y1="0.483" x2="-4.779" y2="0.507" xlink:href="#a"/><linearGradient id="k" x1="10.936" y1="0.486" x2="-7.225" y2="0.51" xlink:href="#a"/><linearGradient id="l" x1="13.716" y1="0.482" x2="-4.918" y2="0.507" xlink:href="#a"/><linearGradient id="m" x1="12.069" y1="0.485" x2="-6.566" y2="0.509" xlink:href="#a"/><linearGradient id="n" x1="15.399" y1="0.48" x2="-3.235" y2="0.505" xlink:href="#a"/><linearGradient id="o" x1="16.233" y1="0.479" x2="-2.401" y2="0.504" xlink:href="#a"/><linearGradient id="p" x1="16.232" y1="0.479" x2="-2.402" y2="0.504" xlink:href="#a"/><linearGradient id="q" x1="15.397" y1="0.48" x2="-3.237" y2="0.505" xlink:href="#a"/><linearGradient id="r" x1="17.046" y1="0.478" x2="-1.589" y2="0.503" xlink:href="#a"/><linearGradient id="s" x1="17.058" y1="0.478" x2="-1.576" y2="0.503" xlink:href="#a"/></defs><g class="a"><path class="b" d="M118.376,136.688H39.459L0,68.345,39.459,0h78.917l39.458,68.345Z" transform="translate(657.097 233.219)"/><path class="c" d="M118.376,136.688H39.458L0,68.345,39.458,0h78.917l39.458,68.345Z" transform="translate(527.413 164.875)"/><path class="d" d="M118.376,136.688H39.458L0,68.344,39.458,0h78.918l39.458,68.344Z" transform="translate(1054.948 171.368)"/><path class="e" d="M118.376,136.688H39.458L0,68.344,39.458,0h78.918l39.458,68.344Z" transform="translate(1054.948 20.516)"/><path class="f" d="M118.376,136.688H39.458L0,68.344,39.458,0h78.917l39.458,68.344Z" transform="translate(393.747 233.204)"/><path class="g" d="M0,70.128l40.484,70.124H121.46l40.488-70.124L121.46,0H40.484Zm42.543,66.559L4.114,70.128,42.543,3.566H119.4l38.429,66.562L119.4,136.687Z" transform="translate(391.691 79.949)"/><path class="h" d="M0,70.125l40.488,70.128H121.46l40.491-70.128L121.46,0H40.488Zm42.546,66.562L4.117,70.125,42.546,3.565H119.4l38.429,66.559L119.4,136.687Z" transform="translate(260.004 148.294)"/><path class="i" d="M0,70.125l40.488,70.128H121.46l40.488-70.128L121.46,0H40.488Zm42.543,66.562L4.114,70.125,42.543,3.565H119.4l38.429,66.559L119.4,136.687Z" transform="translate(0 1.782)"/><path class="j" d="M0,70.127l40.491,70.128h80.972l40.488-70.128L121.463,0H40.491ZM42.546,136.69,4.117,70.127,42.546,3.564H119.4l38.429,66.562L119.4,136.69Z" transform="translate(128.337 376.4)"/><path class="k" d="M0,70.124l40.488,70.127h80.975l40.488-70.127L121.463,0H40.488Zm42.546,66.562L4.117,70.124,42.546,3.564H119.4l38.429,66.56L119.4,136.686Z" transform="translate(525.355 308.058)"/><path class="l" d="M0,70.124l40.488,70.128H121.46l40.491-70.128L121.46,0H40.488Zm42.543,66.562L4.114,70.124,42.543,3.562H119.4l38.429,66.562L119.4,136.686Z" transform="translate(921.34 94.751)"/><path class="m" d="M118.376,136.688H39.458L0,68.344,39.458,0h78.917l39.458,68.344Z" transform="translate(527.413 13.388)"/><path class="n" d="M118.376,136.688H39.459L0,68.345,39.459,0h78.917l39.458,68.345Z" transform="translate(787.616 164.86)"/><path class="o" d="M118.376,136.688H39.459L0,68.344,39.459,0h78.917l39.458,68.344Z" transform="translate(262.061 301.564)"/><path class="p" d="M118.375,136.688H39.458L0,68.344,39.458,0h78.917l39.458,68.344Z" transform="translate(130.397 233.204)"/><path class="q" d="M118.375,136.689H39.458L0,68.345,39.458,0h78.917l39.458,68.345Z" transform="translate(130.397 81.732)"/><path class="r" d="M118.376,136.688H39.459L0,68.343,39.459,0h78.917l39.458,68.343Z" transform="translate(262.061 0)"/><path class="s" d="M118.376,136.688H39.458L0,68.343,39.458,0h78.917l39.458,68.343Z" transform="translate(2.056 157.206)"/><path class="t" d="M118.376,136.687H39.458L0,68.343,39.458,0h78.917l39.458,68.343Z" transform="translate(0.274 306.275)"/></g></svg>