<svg xmlns="http://www.w3.org/2000/svg" xmlns:xlink="http://www.w3.org/1999/xlink" width="1155.268" height="868.568" viewBox="0 0 1155.268 868.568"><defs><style>.a{opacity:0.088;}.b{fill:url(#a);}.c{fill:url(#b);}.d{fill:url(#c);}.e{fill:url(#d);}.f{fill:url(#e);}.g{fill:url(#f);}.h{fill:url(#g);}.i{fill:url(#h);}.j{fill:url(#i);}.k{fill:url(#j);}.l{fill:url(#k);}.m{fill:url(#l);}.n{fill:url(#m);}.o{fill:url(#n);}.p{fill:url(#o);}.q{fill:url(#p);}.r{fill:url(#q);}.s{fill:url(#r);}.t{fill:url(#s);}.u{fill:url(#t);}.v{fill:url(#u);}.w{fill:url(#v);}.x{fill:url(#w);}.y{fill:url(#x);}.z{fill:url(#y);}.aa{fill:url(#z);}.ab{fill:url(#aa);}.ac{fill:url(#ab);}.ad{fill:url(#ac);}.ae{fill:url(#ad);}.af{fill:url(#ae);}.ag{fill:url(#af);}.ah{fill:url(#ag);}.ai{fill:url(#ah);}.aj{fill:url(#ai);}.ak{fill:url(#aj);}.al{fill:url(#ak);}.am{fill:url(#al);}.an{fill:url(#am);}.ao{fill:url(#an);}.ap{fill:url(#ao);}.aq{fill:url(#ap);}.ar{fill:url(#aq);}.as{fill:url(#ar);}.at{fill:url(#as);}.au{fill:url(#at);}.av{fill:url(#au);}.aw{fill:url(#av);}.ax{fill:url(#aw);}.ay{fill:url(#ax);}.az{fill:url(#ay);}.ba{fill:url(#az);}.bb{fill:url(#ba);}.bc{fill:url(#bb);}.bd{fill:url(#bc);}.be{fill:url(#bd);}.bf{fill:url(#be);}.bg{fill:url(#bf);}.bh{fill:url(#bg);}.bi{fill:url(#bh);}.bj{fill:url(#bi);}.bk{fill:url(#bj);}.bl{fill:url(#bk);}.bm{fill:url(#bl);}.bn{fill:url(#bm);}.bo{fill:url(#bn);}.bp{fill:url(#bo);}.bq{fill:url(#bp);}.br{fill:url(#bq);}.bs{fill:url(#br);}.bt{fill:url(#bs);}.bu{fill:url(#bt);}.bv{fill:url(#bu);}.bw{fill:url(#bv);}.bx{fill:url(#bw);}.by{fill:url(#bx);}.bz{fill:url(#by);}.ca{fill:url(#bz);}.cb{fill:url(#ca);}.cc,.cd,.ce{opacity:0.7;}.cc{fill:url(#cb);}.cd{fill:url(#cc);}.ce{fill:url(#cd);}.cf,.cg,.cj,.co,.cp,.cq,.cr,.cs,.ct,.cw,.cx,.cz,.da{opacity:0.5;}.cg{fill:url(#ce);}.ch,.ci,.ck,.cl,.cm,.cn,.cu,.cy,.db,.dc,.dd,.de,.df,.dg,.dh,.di,.dj,.dk,.dl,.dm,.dn,.do,.dp,.dq,.dr,.ds,.dt,.du,.dv,.dw,.dx,.dy,.dz,.ea,.eb,.ec,.ed,.ee,.ef,.eg,.eh,.ei,.ej,.ek,.el,.em,.en,.eo,.ep,.eq,.er,.es,.et,.eu,.ev,.ew,.ex,.ey,.ez,.fa,.fb,.fc,.fd,.fe,.ff,.fg,.fh,.fi,.fj,.fk,.fl,.fm,.fn,.fo,.fp,.fq,.fr,.fs,.ft,.fu{opacity:0.8;}.ch{fill:url(#cf);}.ci{fill:url(#cg);}.cj{fill:url(#ch);}.ck{fill:url(#ci);}.cl{fill:url(#cj);}.cm{fill:url(#ck);}.cn{fill:url(#cl);}.co{fill:url(#cm);}.cp{fill:url(#cn);}.cq{fill:url(#co);}.cr{fill:url(#cp);}.cs{fill:url(#cq);}.ct{fill:url(#cr);}.cu{fill:url(#cs);}.cv{opacity:0.3;fill:url(#ct);}.cw{fill:url(#cu);}.cx{fill:url(#cv);}.cy{fill:url(#cw);}.cz{fill:url(#cx);}.da{fill:url(#cy);}.db{fill:url(#cz);}.dc{fill:url(#da);}.dd{fill:url(#db);}.de{fill:url(#dc);}.df{fill:url(#dd);}.dg{fill:url(#de);}.dh{fill:url(#df);}.di{fill:url(#dg);}.dj{fill:url(#dh);}.dk{fill:url(#di);}.dl{fill:url(#dj);}.dm{fill:url(#dk);}.dn{fill:url(#dl);}.do{fill:url(#dm);}.dp{fill:url(#dn);}.dq{fill:url(#do);}.dr{fill:url(#dp);}.ds{fill:url(#dq);}.dt{fill:url(#dr);}.du{fill:url(#ds);}.dv{fill:url(#dt);}.dw{fill:url(#du);}.dx{fill:url(#dv);}.dy{fill:url(#dw);}.dz{fill:url(#dx);}.ea{fill:url(#dy);}.eb{fill:url(#dz);}.ec{fill:url(#ea);}.ed{fill:url(#eb);}.ee{fill:url(#ec);}.ef{fill:url(#ed);}.eg{fill:url(#ee);}.eh{fill:url(#ef);}.ei{fill:url(#eg);}.ej{fill:url(#eh);}.ek{fill:url(#ei);}.el{fill:url(#ej);}.em{fill:url(#ek);}.en{fill:url(#el);}.eo{fill:url(#em);}.ep{fill:url(#en);}.eq{fill:url(#eo);}.er{fill:url(#ep);}.es{fill:url(#eq);}.et{fill:url(#er);}.eu{fill:url(#es);}.ev{fill:url(#et);}.ew{fill:url(#eu);}.ex{fill:url(#ev);}.ey{fill:url(#ew);}.ez{fill:url(#ex);}.fa{fill:url(#ey);}.fb{fill:url(#ez);}.fc{fill:url(#fa);}.fd{fill:url(#fb);}.fe{fill:url(#fc);}.ff{fill:url(#fd);}.fg{fill:url(#fe);}.fh{fill:url(#ff);}.fi{fill:url(#fg);}.fj{fill:url(#fh);}.fk{fill:url(#fi);}.fl{fill:url(#fj);}.fm{fill:url(#fk);}.fn{fill:url(#fl);}.fo{fill:url(#fm);}.fp{fill:url(#fn);}.fq{fill:url(#fo);}.fr{fill:url(#fp);}.fs{fill:url(#fq);}.ft{fill:url(#fr);}.fu{fill:url(#fs);}.fv{fill:url(#ft);}.fw{fill:url(#fu);}.fx{fill:url(#fv);}.fy{fill:url(#fw);}.fz{fill:url(#fx);}.ga{fill:url(#fy);}.gb{fill:url(#fz);}.gc{fill:url(#ga);}.gd{fill:url(#gb);}.ge{fill:url(#gc);}.gf{fill:url(#gd);}.gg{fill:url(#ge);}.gh{fill:url(#gf);}.gi{fill:url(#gg);}.gj{fill:url(#gh);}.gk{fill:url(#gi);}.gl{fill:url(#gj);}.gm{fill:url(#gk);}.gn{fill:url(#gl);}.go{fill:url(#gm);}.gp{fill:url(#gn);}.gq{fill:url(#go);}.gr{fill:url(#gp);}.gs{fill:url(#gq);}.gt{fill:url(#gr);}.gu{fill:url(#gs);}.gv{fill:url(#gt);}</style><linearGradient id="a" x1="-9.507" y1="0.326" x2="9.2" y2="0.651" gradientUnits="objectBoundingBox"><stop offset="0" stop-color="#00bdff"/><stop offset="0.24" stop-color="#00b8ff"/><stop offset="0.488" stop-color="#00acff"/><stop offset="0.74" stop-color="#0097ff"/><stop offset="0.993" stop-color="#007aff"/><stop offset="1" stop-color="#007aff"/></linearGradient><linearGradient id="b" x1="-113.525" y1="-1.212" x2="110.657" y2="2.155" xlink:href="#a"/><linearGradient id="c" x1="-116.529" y1="-1.258" x2="107.617" y2="2.109" xlink:href="#a"/><linearGradient id="d" x1="-122.421" y1="-1.347" x2="101.725" y2="2.021" xlink:href="#a"/><linearGradient id="e" x1="-125.29" y1="-1.389" x2="98.856" y2="1.978" xlink:href="#a"/><linearGradient id="f" x1="-122.268" y1="-1.344" x2="101.879" y2="2.023" xlink:href="#a"/><linearGradient id="g" x1="-116.376" y1="-1.256" x2="107.77" y2="2.111" xlink:href="#a"/><linearGradient id="h" x1="-6.606" y1="0.377" x2="3.969" y2="0.56" xlink:href="#a"/><linearGradient id="i" x1="-144.591" y1="-1.679" x2="79.555" y2="1.688" xlink:href="#a"/><linearGradient id="j" x1="-155.231" y1="-1.839" x2="68.915" y2="1.528" xlink:href="#a"/><linearGradient id="k" x1="-160.616" y1="-1.92" x2="63.53" y2="1.447" xlink:href="#a"/><linearGradient id="l" x1="-155.505" y1="-1.843" x2="68.642" y2="1.524" xlink:href="#a"/><linearGradient id="m" x1="-139.479" y1="-1.603" x2="84.667" y2="1.764" xlink:href="#a"/><linearGradient id="n" x1="-144.864" y1="-1.684" x2="79.282" y2="1.683" xlink:href="#a"/><linearGradient id="o" x1="-10.975" y1="0.301" x2="7.732" y2="0.625" xlink:href="#a"/><linearGradient id="p" x1="-131.122" y1="-1.477" x2="93.06" y2="1.89" xlink:href="#a"/><linearGradient id="q" x1="-134.123" y1="-1.522" x2="90.023" y2="1.845" xlink:href="#a"/><linearGradient id="r" x1="-140.015" y1="-1.611" x2="84.132" y2="1.756" xlink:href="#a"/><linearGradient id="s" x1="-142.884" y1="-1.654" x2="81.262" y2="1.713" xlink:href="#a"/><linearGradient id="t" x1="-139.861" y1="-1.608" x2="84.285" y2="1.759" xlink:href="#a"/><linearGradient id="u" x1="-133.97" y1="-1.52" x2="90.176" y2="1.847" xlink:href="#a"/><linearGradient id="v" x1="-10.096" y1="0.316" x2="8.611" y2="0.641" xlink:href="#a"/><linearGradient id="w" x1="-120.573" y1="-1.319" x2="103.573" y2="2.048" xlink:href="#a"/><linearGradient id="x" x1="-123.595" y1="-1.364" x2="100.551" y2="2.003" xlink:href="#a"/><linearGradient id="y" x1="-129.487" y1="-1.453" x2="94.66" y2="1.915" xlink:href="#a"/><linearGradient id="z" x1="-132.356" y1="-1.496" x2="91.79" y2="1.871" xlink:href="#a"/><linearGradient id="aa" x1="-129.333" y1="-1.45" x2="94.813" y2="1.917" xlink:href="#a"/><linearGradient id="ab" x1="-123.442" y1="-1.362" x2="100.704" y2="2.005" xlink:href="#a"/><linearGradient id="ac" x1="-11.233" y1="0.296" x2="7.474" y2="0.621" xlink:href="#a"/><linearGradient id="ad" x1="-134.22" y1="-1.523" x2="89.962" y2="1.844" xlink:href="#a"/><linearGradient id="ae" x1="-137.221" y1="-1.569" x2="86.926" y2="1.798" xlink:href="#a"/><linearGradient id="af" x1="-143.112" y1="-1.657" x2="81.034" y2="1.71" xlink:href="#a"/><linearGradient id="ag" x1="-145.981" y1="-1.7" x2="78.165" y2="1.667" xlink:href="#a"/><linearGradient id="ah" x1="-142.959" y1="-1.655" x2="81.188" y2="1.712" xlink:href="#a"/><linearGradient id="ai" x1="-137.067" y1="-1.566" x2="87.079" y2="1.801" xlink:href="#a"/><linearGradient id="aj" x1="-10.356" y1="0.312" x2="8.351" y2="0.636" xlink:href="#a"/><linearGradient id="ak" x1="-123.68" y1="-1.365" x2="100.466" y2="2.002" xlink:href="#a"/><linearGradient id="al" x1="-126.702" y1="-1.411" x2="97.444" y2="1.956" xlink:href="#a"/><linearGradient id="am" x1="-132.615" y1="-1.499" x2="91.567" y2="1.868" xlink:href="#a"/><linearGradient id="an" x1="-135.463" y1="-1.542" x2="88.684" y2="1.825" xlink:href="#a"/><linearGradient id="ao" x1="-132.462" y1="-1.497" x2="91.721" y2="1.87" xlink:href="#a"/><linearGradient id="ap" x1="-126.549" y1="-1.409" x2="97.597" y2="1.959" xlink:href="#a"/><linearGradient id="aq" x1="-7.443" y1="0.362" x2="3.132" y2="0.546" xlink:href="#a"/><linearGradient id="ar" x1="-162.333" y1="-1.946" x2="61.813" y2="1.421" xlink:href="#a"/><linearGradient id="as" x1="-173.001" y1="-2.106" x2="51.181" y2="1.261" xlink:href="#a"/><linearGradient id="at" x1="-178.359" y1="-2.187" x2="45.788" y2="1.18" xlink:href="#a"/><linearGradient id="au" x1="-173.274" y1="-2.11" x2="50.908" y2="1.257" xlink:href="#a"/><linearGradient id="av" x1="-157.222" y1="-1.87" x2="66.925" y2="1.498" xlink:href="#a"/><linearGradient id="aw" x1="-162.606" y1="-1.95" x2="61.54" y2="1.417" xlink:href="#a"/><linearGradient id="ax" x1="-175.264" y1="-2.14" x2="48.882" y2="1.227" xlink:href="#a"/><linearGradient id="ay" x1="-178.133" y1="-2.183" x2="46.013" y2="1.184" xlink:href="#a"/><linearGradient id="az" x1="-183.094" y1="-2.258" x2="41.052" y2="1.109" xlink:href="#a"/><linearGradient id="ba" x1="-14.436" y1="0.241" x2="4.271" y2="0.565" xlink:href="#a"/><linearGradient id="bb" x1="-14.436" y1="0.241" x2="4.271" y2="0.565" xlink:href="#a"/><linearGradient id="bc" x1="-172.566" y1="-2.1" x2="51.58" y2="1.267" xlink:href="#a"/><linearGradient id="bd" x1="-175.589" y1="-2.145" x2="48.558" y2="1.222" xlink:href="#a"/><linearGradient id="be" x1="-181.48" y1="-2.234" x2="42.666" y2="1.133" xlink:href="#a"/><linearGradient id="bf" x1="-175.435" y1="-2.143" x2="48.711" y2="1.224" xlink:href="#a"/><linearGradient id="bg" x1="-13.175" y1="0.263" x2="5.532" y2="0.587" xlink:href="#a"/><linearGradient id="bh" x1="-157.464" y1="-1.873" x2="66.682" y2="1.494" xlink:href="#a"/><linearGradient id="bi" x1="-160.487" y1="-1.918" x2="63.659" y2="1.449" xlink:href="#a"/><linearGradient id="bj" x1="-166.378" y1="-2.007" x2="57.768" y2="1.36" xlink:href="#a"/><linearGradient id="bk" x1="-169.248" y1="-2.05" x2="54.899" y2="1.317" xlink:href="#a"/><linearGradient id="bl" x1="-166.225" y1="-2.004" x2="57.921" y2="1.363" xlink:href="#a"/><linearGradient id="bm" x1="-160.334" y1="-1.916" x2="63.813" y2="1.451" xlink:href="#a"/><linearGradient id="bn" x1="-13.453" y1="0.258" x2="5.254" y2="0.582" xlink:href="#a"/><linearGradient id="bo" x1="-160.824" y1="-1.923" x2="63.359" y2="1.444" xlink:href="#a"/><linearGradient id="bp" x1="-163.82" y1="-1.968" x2="60.326" y2="1.399" xlink:href="#a"/><linearGradient id="bq" x1="-169.738" y1="-2.057" x2="54.443" y2="1.31" xlink:href="#a"/><linearGradient id="br" x1="-172.58" y1="-2.1" x2="51.566" y2="1.267" xlink:href="#a"/><linearGradient id="bs" x1="-169.585" y1="-2.055" x2="54.597" y2="1.312" xlink:href="#a"/><linearGradient id="bt" x1="-163.667" y1="-1.966" x2="60.48" y2="1.401" xlink:href="#a"/><linearGradient id="bu" x1="-14.036" y1="0.248" x2="4.671" y2="0.572" xlink:href="#a"/><linearGradient id="bv" x1="-167.806" y1="-2.028" x2="56.375" y2="1.339" xlink:href="#a"/><linearGradient id="bw" x1="-170.802" y1="-2.073" x2="53.344" y2="1.294" xlink:href="#a"/><linearGradient id="bx" x1="-176.693" y1="-2.162" x2="47.453" y2="1.205" xlink:href="#a"/><linearGradient id="by" x1="-179.563" y1="-2.205" x2="44.584" y2="1.162" xlink:href="#a"/><linearGradient id="bz" x1="-176.54" y1="-2.159" x2="47.606" y2="1.208" xlink:href="#a"/><linearGradient id="ca" x1="-170.649" y1="-2.071" x2="53.497" y2="1.296" xlink:href="#a"/><linearGradient id="cb" x1="-12.4" y1="0.276" x2="6.355" y2="0.602" xlink:href="#a"/><linearGradient id="cc" x1="-23.159" y1="0.09" x2="6.775" y2="0.609" xlink:href="#a"/><linearGradient id="cd" x1="-18.021" y1="0.179" x2="7.185" y2="0.616" xlink:href="#a"/><linearGradient id="ce" x1="-10.811" y1="0.485" x2="10.017" y2="0.513" xlink:href="#a"/><linearGradient id="cf" x1="-10.293" y1="0.486" x2="11.078" y2="0.514" xlink:href="#a"/><linearGradient id="cg" x1="-11.92" y1="0.483" x2="9.451" y2="0.512" xlink:href="#a"/><linearGradient id="ch" x1="-11.896" y1="0.483" x2="6.738" y2="0.508" xlink:href="#a"/><linearGradient id="ci" x1="-12.717" y1="0.482" x2="5.917" y2="0.507" xlink:href="#a"/><linearGradient id="cj" x1="-9.375" y1="0.487" x2="9.26" y2="0.512" xlink:href="#a"/><linearGradient id="ck" x1="-9.374" y1="0.487" x2="9.261" y2="0.512" xlink:href="#a"/><linearGradient id="cl" x1="-13.565" y1="0.481" x2="5.07" y2="0.506" xlink:href="#a"/><linearGradient id="cm" x1="-13.206" y1="0.482" x2="4.955" y2="0.506" xlink:href="#a"/><linearGradient id="cn" x1="-14.02" y1="0.481" x2="4.141" y2="0.505" xlink:href="#a"/><linearGradient id="co" x1="-15.624" y1="0.478" x2="2.537" y2="0.503" xlink:href="#a"/><linearGradient id="cp" x1="-14.834" y1="0.479" x2="3.327" y2="0.504" xlink:href="#a"/><linearGradient id="cq" x1="-12.382" y1="0.483" x2="5.779" y2="0.507" xlink:href="#a"/><linearGradient id="cr" x1="-9.936" y1="0.486" x2="8.225" y2="0.51" xlink:href="#a"/><linearGradient id="cs" x1="-12.716" y1="0.482" x2="5.918" y2="0.507" xlink:href="#a"/><linearGradient id="ct" x1="-11.069" y1="0.485" x2="7.566" y2="0.509" xlink:href="#a"/><linearGradient id="cu" x1="-14.399" y1="0.48" x2="4.235" y2="0.505" xlink:href="#a"/><linearGradient id="cv" x1="-15.233" y1="0.479" x2="3.401" y2="0.504" xlink:href="#a"/><linearGradient id="cw" x1="-15.232" y1="0.479" x2="3.402" y2="0.504" xlink:href="#a"/><linearGradient id="cx" x1="-14.397" y1="0.48" x2="4.237" y2="0.505" xlink:href="#a"/><linearGradient id="cy" x1="-16.046" y1="0.478" x2="2.589" y2="0.503" xlink:href="#a"/><linearGradient id="cz" x1="-16.058" y1="0.478" x2="2.576" y2="0.503" xlink:href="#a"/><linearGradient id="da" x1="-135.576" y1="0.342" x2="28.367" y2="0.532" xlink:href="#a"/><linearGradient id="db" x1="-140.508" y1="0.337" x2="23.436" y2="0.527" xlink:href="#a"/><linearGradient id="dc" x1="-349.849" y1="-0.312" x2="62.72" y2="0.644" xlink:href="#a"/><linearGradient id="dd" x1="-351.861" y1="-0.316" x2="60.722" y2="0.64" xlink:href="#a"/><linearGradient id="de" x1="-343.859" y1="-0.298" x2="68.722" y2="0.658" xlink:href="#a"/><linearGradient id="df" x1="-347.823" y1="-0.307" x2="64.715" y2="0.649" xlink:href="#a"/><linearGradient id="dg" x1="-345.819" y1="-0.303" x2="66.714" y2="0.654" xlink:href="#a"/><linearGradient id="dh" x1="-111.685" y1="0.353" x2="33.7" y2="0.543" xlink:href="#a"/><linearGradient id="di" x1="-120.672" y1="0.36" x2="43.27" y2="0.549" xlink:href="#a"/><linearGradient id="dj" x1="-306.927" y1="-0.213" x2="105.629" y2="0.744" xlink:href="#a"/><linearGradient id="dk" x1="-312.937" y1="-0.226" x2="99.633" y2="0.73" xlink:href="#a"/><linearGradient id="dl" x1="-314.947" y1="-0.231" x2="97.636" y2="0.725" xlink:href="#a"/><linearGradient id="dm" x1="-308.935" y1="-0.217" x2="103.632" y2="0.739" xlink:href="#a"/><linearGradient id="dn" x1="-310.925" y1="-0.222" x2="101.629" y2="0.734" xlink:href="#a"/><linearGradient id="do" x1="-606.66" y1="0.148" x2="218.455" y2="0.626" xlink:href="#a"/><linearGradient id="dp" x1="-280.482" y1="-0.151" x2="132.104" y2="0.805" xlink:href="#a"/><linearGradient id="dq" x1="-279.48" y1="-0.149" x2="133.1" y2="0.807" xlink:href="#a"/><linearGradient id="dr" x1="-608.617" y1="0.147" x2="216.435" y2="0.625" xlink:href="#a"/><linearGradient id="ds" x1="-281.465" y1="-0.153" x2="131.099" y2="0.803" xlink:href="#a"/><linearGradient id="dt" x1="-604.549" y1="0.149" x2="220.42" y2="0.627" xlink:href="#a"/><linearGradient id="du" x1="-562.903" y1="0.173" x2="262.056" y2="0.651" xlink:href="#a"/><linearGradient id="dv" x1="-566.946" y1="0.171" x2="258.065" y2="0.649" xlink:href="#a"/><linearGradient id="dw" x1="-558.899" y1="0.176" x2="266.065" y2="0.654" xlink:href="#a"/><linearGradient id="dx" x1="-560.951" y1="0.175" x2="264.084" y2="0.653" xlink:href="#a"/><linearGradient id="dy" x1="-282.437" y1="-0.156" x2="130.089" y2="0.8" xlink:href="#a"/><linearGradient id="dz" x1="-564.876" y1="0.172" x2="260.038" y2="0.65" xlink:href="#a"/><linearGradient id="ea" x1="-112.947" y1="0.392" x2="50.995" y2="0.548" xlink:href="#a"/><linearGradient id="eb" x1="-289.449" y1="-0.172" x2="123.12" y2="0.784" xlink:href="#a"/><linearGradient id="ec" x1="-295.459" y1="-0.186" x2="117.124" y2="0.77" xlink:href="#a"/><linearGradient id="ed" x1="-293.461" y1="-0.181" x2="119.125" y2="0.775" xlink:href="#a"/><linearGradient id="ee" x1="-291.44" y1="-0.177" x2="121.116" y2="0.78" xlink:href="#a"/><linearGradient id="ef" x1="-287.424" y1="-0.167" x2="125.109" y2="0.789" xlink:href="#a"/><linearGradient id="eg" x1="-298.928" y1="0.099" x2="133.055" y2="0.677" xlink:href="#a"/><linearGradient id="eh" x1="-602.627" y1="0.151" x2="222.454" y2="0.629" xlink:href="#a"/><linearGradient id="ei" x1="-284.45" y1="-0.16" x2="128.101" y2="0.796" xlink:href="#a"/><linearGradient id="ej" x1="-600.553" y1="0.152" x2="224.431" y2="0.63" xlink:href="#a"/><linearGradient id="ek" x1="-283.462" y1="-0.158" x2="129.104" y2="0.798" xlink:href="#a"/><linearGradient id="el" x1="-297.448" y1="-0.19" x2="115.12" y2="0.766" xlink:href="#a"/><linearGradient id="em" x1="-598.587" y1="0.153" x2="226.45" y2="0.631" xlink:href="#a"/><linearGradient id="en" x1="-121.034" y1="0.359" x2="42.91" y2="0.549" xlink:href="#a"/><linearGradient id="eo" x1="-472.744" y1="0.226" x2="314.976" y2="0.682" xlink:href="#a"/><linearGradient id="ep" x1="-470.671" y1="0.227" x2="316.933" y2="0.683" xlink:href="#a"/><linearGradient id="eq" x1="-466.661" y1="0.229" x2="320.938" y2="0.686" xlink:href="#a"/><linearGradient id="er" x1="-464.728" y1="0.23" x2="322.99" y2="0.687" xlink:href="#a"/><linearGradient id="es" x1="-509.81" y1="0.204" x2="277.993" y2="0.661" xlink:href="#a"/><linearGradient id="et" x1="-233.223" y1="-0.042" x2="160.67" y2="0.871" xlink:href="#a"/><linearGradient id="eu" x1="-288.232" y1="0.259" x2="202.421" y2="0.668" xlink:href="#a"/><linearGradient id="ev" x1="-238.692" y1="-0.054" x2="155.238" y2="0.859" xlink:href="#a"/><linearGradient id="ew" x1="-232.211" y1="-0.039" x2="161.658" y2="0.874" xlink:href="#a"/><linearGradient id="ex" x1="-240.674" y1="-0.059" x2="153.227" y2="0.854" xlink:href="#a"/><linearGradient id="ey" x1="-244.674" y1="-0.068" x2="149.227" y2="0.845" xlink:href="#a"/><linearGradient id="ez" x1="-246.684" y1="-0.073" x2="147.233" y2="0.84" xlink:href="#a"/><linearGradient id="fa" x1="-474.774" y1="0.225" x2="312.992" y2="0.681" xlink:href="#a"/><linearGradient id="fb" x1="-242.674" y1="-0.064" x2="151.227" y2="0.849" xlink:href="#a"/><linearGradient id="fc" x1="-468.662" y1="0.228" x2="318.933" y2="0.685" xlink:href="#a"/><linearGradient id="fd" x1="-246.838" y1="-0.073" x2="147.063" y2="0.84" xlink:href="#a"/><linearGradient id="fe" x1="-286.564" y1="0.245" x2="163.618" y2="0.645" xlink:href="#a"/><linearGradient id="ff" x1="-234.226" y1="-0.044" x2="159.676" y2="0.869" xlink:href="#a"/><linearGradient id="fg" x1="-244.813" y1="-0.069" x2="149.047" y2="0.844" xlink:href="#a"/><linearGradient id="fh" x1="-238.848" y1="-0.055" x2="155.069" y2="0.858" xlink:href="#a"/><linearGradient id="fi" x1="-240.865" y1="-0.059" x2="153.08" y2="0.854" xlink:href="#a"/><linearGradient id="fj" x1="-242.838" y1="-0.064" x2="151.063" y2="0.849" xlink:href="#a"/><linearGradient id="fk" x1="-248.838" y1="-0.078" x2="145.063" y2="0.835" xlink:href="#a"/><linearGradient id="fl" x1="-235.254" y1="-0.046" x2="158.698" y2="0.867" xlink:href="#a"/><linearGradient id="fm" x1="-507.676" y1="0.206" x2="279.925" y2="0.662" xlink:href="#a"/><linearGradient id="fn" x1="-237.236" y1="-0.051" x2="156.692" y2="0.862" xlink:href="#a"/><linearGradient id="fo" x1="-505.812" y1="0.207" x2="282.006" y2="0.663" xlink:href="#a"/><linearGradient id="fp" x1="-503.772" y1="0.208" x2="283.99" y2="0.664" xlink:href="#a"/><linearGradient id="fq" x1="-236.231" y1="-0.048" x2="157.686" y2="0.864" xlink:href="#a"/><linearGradient id="fr" x1="-106.219" y1="0.376" x2="57.726" y2="0.566" xlink:href="#a"/><linearGradient id="fs" x1="-89.14" y1="0.379" x2="52.058" y2="0.569" xlink:href="#a"/><linearGradient id="ft" x1="-7.476" y1="0.489" x2="5.229" y2="0.506" xlink:href="#a"/><linearGradient id="fu" x1="-10.321" y1="0.486" x2="2.383" y2="0.503" xlink:href="#a"/><linearGradient id="fv" x1="-10.82" y1="0.485" x2="1.885" y2="0.502" xlink:href="#a"/><linearGradient id="fw" x1="-6.666" y1="0.49" x2="6.038" y2="0.507" xlink:href="#a"/><linearGradient id="fx" x1="-8.295" y1="0.488" x2="4.41" y2="0.505" xlink:href="#a"/><linearGradient id="fy" x1="-11.549" y1="0.484" x2="11.725" y2="0.515" xlink:href="#a"/><linearGradient id="fz" x1="-12.383" y1="0.483" x2="10.892" y2="0.514" xlink:href="#a"/><linearGradient id="ga" x1="-15.925" y1="0.478" x2="7.35" y2="0.509" xlink:href="#a"/><linearGradient id="gb" x1="-16.758" y1="0.477" x2="6.516" y2="0.508" xlink:href="#a"/><linearGradient id="gc" x1="-20.423" y1="0.472" x2="2.851" y2="0.503" xlink:href="#a"/><linearGradient id="gd" x1="-11.467" y1="0.484" x2="11.807" y2="0.515" xlink:href="#a"/><linearGradient id="ge" x1="-16.842" y1="0.477" x2="6.433" y2="0.508" xlink:href="#a"/><linearGradient id="gf" x1="-6.575" y1="0.491" x2="5.966" y2="0.507" xlink:href="#a"/><linearGradient id="gg" x1="-5.269" y1="0.492" x2="7.273" y2="0.509" xlink:href="#a"/><linearGradient id="gh" x1="-8.181" y1="0.488" x2="4.361" y2="0.505" xlink:href="#a"/><linearGradient id="gi" x1="-13.416" y1="0.481" x2="5.133" y2="0.506" xlink:href="#a"/><linearGradient id="gj" x1="-14.265" y1="0.48" x2="4.284" y2="0.505" xlink:href="#a"/><linearGradient id="gk" x1="-16.268" y1="0.478" x2="2.28" y2="0.502" xlink:href="#a"/><linearGradient id="gl" x1="-66.636" y1="0.422" x2="19.132" y2="0.522" xlink:href="#a"/><linearGradient id="gm" x1="-57.167" y1="0.433" x2="28.592" y2="0.533" xlink:href="#a"/><linearGradient id="gn" x1="-49.735" y1="0.442" x2="36.033" y2="0.541" xlink:href="#a"/><linearGradient id="go" x1="-105.944" y1="0.377" x2="15.349" y2="0.517" xlink:href="#a"/><linearGradient id="gp" x1="-92.1" y1="0.393" x2="29.192" y2="0.533" xlink:href="#a"/><linearGradient id="gq" x1="-85.814" y1="0.4" x2="35.463" y2="0.541" xlink:href="#a"/><linearGradient id="gr" x1="-63.153" y1="0.426" x2="58.139" y2="0.567" xlink:href="#a"/><linearGradient id="gs" x1="-112.832" y1="0.369" x2="8.444" y2="0.509" xlink:href="#a"/><linearGradient id="gt" x1="-110.704" y1="0.371" x2="10.59" y2="0.512" xlink:href="#a"/></defs><g class="a" transform="matrix(-0.875, 0.485, -0.485, -0.875, 1554.752, -8875.401)"><g transform="translate(5807.432 -7618.165) rotate(-150)"><path class="b" d="M172.632,74.751l-42.805,74.141-.351.612H43.156L0,74.751,42.8.613,43.156,0h86.319Zm-169.8,0,41.745,72.3h83.483l41.745-72.3-41.745-72.3H44.575Z" transform="translate(5.789 5.98)"/><path class="c" d="M14.405,7.205a7.2,7.2,0,1,0-7.2,7.2A7.2,7.2,0,0,0,14.405,7.205Z" transform="translate(0 73.526)"/><path class="d" d="M14.408,7.2a7.2,7.2,0,1,0-7.205,7.2A7.2,7.2,0,0,0,14.408,7.2Z" transform="translate(42.449 147.055)"/><path class="e" d="M14.408,7.2a7.2,7.2,0,1,0-7.2,7.2A7.2,7.2,0,0,0,14.408,7.2Z" transform="translate(127.35 147.055)"/><path class="f" d="M14.408,7.205a7.2,7.2,0,1,0-7.205,7.2A7.205,7.205,0,0,0,14.408,7.205Z" transform="translate(169.802 73.526)"/><path class="g" d="M14.408,7.2a7.2,7.2,0,1,0-7.2,7.2A7.2,7.2,0,0,0,14.408,7.2Z" transform="translate(127.35)"/><path class="h" d="M14.408,7.2a7.2,7.2,0,1,0-7.205,7.2A7.2,7.2,0,0,0,14.408,7.2Z" transform="translate(42.449)"/></g><g transform="translate(5506.345 -7550.616) rotate(-150)"><path class="i" d="M305.018,131.617l.353.615L229.027,264.461H76.342L.351,132.844,0,132.232,76.342,0H229.027ZM2.83,132.232,77.756,262.01H227.613l74.928-129.778L227.613,2.451H77.756Z" transform="translate(7.852 5.978)"/><path class="j" d="M14.408,7.205a7.2,7.2,0,1,0-7.2,7.2A7.2,7.2,0,0,0,14.408,7.205Z" transform="translate(75.635)"/><path class="k" d="M14.408,7.205a7.2,7.2,0,1,0-7.205,7.2A7.205,7.205,0,0,0,14.408,7.205Z" transform="translate(228.969)"/><path class="l" d="M14.408,7.206a7.2,7.2,0,1,0-7.205,7.2A7.2,7.2,0,0,0,14.408,7.206Z" transform="translate(304.604 131.005)"/><path class="m" d="M14.408,7.206a7.2,7.2,0,1,0-7.205,7.2A7.205,7.205,0,0,0,14.408,7.206Z" transform="translate(228.969 262.009)"/><path class="n" d="M14.408,7.206a7.2,7.2,0,1,0-7.205,7.2A7.2,7.2,0,0,0,14.408,7.206Z" transform="translate(0 131.005)"/><path class="o" d="M14.408,7.206a7.2,7.2,0,1,0-7.2,7.2A7.2,7.2,0,0,0,14.408,7.206Z" transform="translate(75.635 262.009)"/></g><g transform="translate(5698.444 -7638.426) rotate(-150)"><path class="p" d="M172.634,74.756l-43.159,74.75H43.158L0,74.756,43.158,0h86.317Zm-169.8,0,41.742,72.3h83.485l41.745-72.3-41.745-72.3H44.575Z" transform="translate(5.787 5.978)"/><path class="q" d="M14.405,7.2a7.2,7.2,0,1,0-7.2,7.2A7.2,7.2,0,0,0,14.405,7.2Z" transform="translate(0 73.528)"/><path class="r" d="M14.408,7.2a7.2,7.2,0,1,0-7.2,7.206A7.2,7.2,0,0,0,14.408,7.2Z" transform="translate(42.449 147.055)"/><path class="s" d="M14.408,7.2a7.2,7.2,0,1,0-7.2,7.206A7.2,7.2,0,0,0,14.408,7.2Z" transform="translate(127.35 147.055)"/><path class="t" d="M14.408,7.2a7.2,7.2,0,1,0-7.205,7.2A7.2,7.2,0,0,0,14.408,7.2Z" transform="translate(169.802 73.528)"/><path class="u" d="M14.408,7.205a7.2,7.2,0,1,0-7.2,7.2A7.2,7.2,0,0,0,14.408,7.205Z" transform="translate(127.35)"/><path class="v" d="M14.408,7.205a7.2,7.2,0,1,0-7.2,7.2A7.2,7.2,0,0,0,14.408,7.205Z" transform="translate(42.449)"/></g><g transform="translate(5783.773 -7485.481) rotate(-150)"><path class="w" d="M172.634,74.755l-43.158,74.751H43.159L0,74.755,43.159,0h86.317Zm-169.8,0,41.742,72.3h83.487l41.742-72.3-41.742-72.3H44.575Z" transform="translate(5.787 5.976)"/><path class="x" d="M14.408,7.2a7.2,7.2,0,1,0-7.205,7.2A7.205,7.205,0,0,0,14.408,7.2Z" transform="translate(0 73.526)"/><path class="y" d="M14.408,7.205a7.2,7.2,0,1,0-7.2,7.2A7.2,7.2,0,0,0,14.408,7.205Z" transform="translate(42.449 147.053)"/><path class="z" d="M14.408,7.205a7.2,7.2,0,1,0-7.2,7.2A7.2,7.2,0,0,0,14.408,7.205Z" transform="translate(127.35 147.053)"/><path class="aa" d="M14.408,7.2a7.2,7.2,0,1,0-7.2,7.2A7.2,7.2,0,0,0,14.408,7.2Z" transform="translate(169.802 73.526)"/><path class="ab" d="M14.408,7.2a7.2,7.2,0,1,0-7.2,7.2A7.2,7.2,0,0,0,14.408,7.2Z" transform="translate(127.35)"/><path class="ac" d="M14.408,7.2a7.2,7.2,0,1,0-7.2,7.2A7.2,7.2,0,0,0,14.408,7.2Z" transform="translate(42.449)"/></g><g transform="translate(5488.384 -7373.899) rotate(-150)"><path class="ad" d="M172.634,74.753l-43.158,74.752H43.161L0,74.753,43.161,0h86.315Zm-169.8,0,41.745,72.3h83.487l41.742-72.3-41.742-72.3H44.575Z" transform="translate(5.787 5.978)"/><path class="ae" d="M14.405,7.2a7.2,7.2,0,1,0-7.2,7.2A7.2,7.2,0,0,0,14.405,7.2Z" transform="translate(0 73.528)"/><path class="af" d="M14.408,7.2a7.2,7.2,0,1,0-7.2,7.206A7.2,7.2,0,0,0,14.408,7.2Z" transform="translate(42.449 147.055)"/><path class="ag" d="M14.408,7.2a7.2,7.2,0,1,0-7.2,7.206A7.2,7.2,0,0,0,14.408,7.2Z" transform="translate(127.35 147.055)"/><path class="ah" d="M14.408,7.2a7.2,7.2,0,1,0-7.2,7.2A7.2,7.2,0,0,0,14.408,7.2Z" transform="translate(169.802 73.528)"/><path class="ai" d="M14.408,7.205a7.2,7.2,0,1,0-7.2,7.2A7.2,7.2,0,0,0,14.408,7.205Z" transform="translate(127.35)"/><path class="aj" d="M14.408,7.205a7.2,7.2,0,1,0-7.2,7.2A7.2,7.2,0,0,0,14.408,7.205Z" transform="translate(42.449)"/></g><g transform="translate(5578.243 -7228.801) rotate(-150)"><path class="ak" d="M172.634,74.751l-43.156,74.755H43.161L0,74.751,43.161,0h86.317Zm-169.8,0,41.742,72.3h83.487l41.742-72.3-41.742-72.3H44.575Z" transform="translate(5.787 5.978)"/><path class="al" d="M14.408,7.2A7.2,7.2,0,1,0,7.2,14.408,7.2,7.2,0,0,0,14.408,7.2Z" transform="translate(0 73.526)"/><path class="am" d="M14.408,7.205a7.2,7.2,0,1,0-7.2,7.2A7.2,7.2,0,0,0,14.408,7.205Z" transform="translate(42.449 147.052)"/><path class="an" d="M14.405,7.205a7.2,7.2,0,1,0-7.2,7.2A7.2,7.2,0,0,0,14.405,7.205Z" transform="translate(127.353 147.052)"/><path class="ao" d="M14.408,7.2a7.2,7.2,0,1,0-7.2,7.205A7.2,7.2,0,0,0,14.408,7.2Z" transform="translate(169.802 73.526)"/><path class="ap" d="M14.405,7.2a7.2,7.2,0,1,0-7.2,7.205A7.2,7.2,0,0,0,14.405,7.2Z" transform="translate(127.353)"/><path class="aq" d="M14.408,7.2a7.2,7.2,0,1,0-7.2,7.205A7.2,7.2,0,0,0,14.408,7.2Z" transform="translate(42.449)"/></g><g transform="translate(5203.055 -7541.461) rotate(-150)"><path class="ar" d="M305.02,131.617l.354.614L229.029,264.462H76.342L.353,132.843,0,132.231,76.342,0H229.029Zm-302.188.614L77.758,262.009H227.613l74.931-129.778L227.613,2.453H77.758Z" transform="translate(7.85 5.976)"/><path class="as" d="M14.408,7.2a7.2,7.2,0,1,0-7.2,7.2A7.2,7.2,0,0,0,14.408,7.2Z" transform="translate(75.635)"/><path class="at" d="M14.406,7.2a7.2,7.2,0,1,0-7.2,7.2A7.2,7.2,0,0,0,14.406,7.2Z" transform="translate(228.969)"/><path class="au" d="M14.408,7.2a7.2,7.2,0,1,0-7.205,7.2A7.2,7.2,0,0,0,14.408,7.2Z" transform="translate(304.604 131.005)"/><path class="av" d="M14.406,7.205a7.2,7.2,0,1,0-7.2,7.2A7.206,7.206,0,0,0,14.406,7.205Z" transform="translate(228.969 262.007)"/><path class="aw" d="M14.408,7.2a7.2,7.2,0,1,0-7.2,7.2A7.2,7.2,0,0,0,14.408,7.2Z" transform="translate(0 131.005)"/><path class="ax" d="M14.408,7.205a7.2,7.2,0,1,0-7.2,7.2A7.207,7.207,0,0,0,14.408,7.205Z" transform="translate(75.635 262.007)"/></g><path class="ay" d="M14.408,7.205a7.2,7.2,0,1,0-7.2,7.2A7.2,7.2,0,0,0,14.408,7.205Z" transform="translate(5102.18 -7883.321) rotate(-150)"/><path class="az" d="M14.408,7.2a7.2,7.2,0,1,0-7.2,7.205A7.2,7.2,0,0,0,14.408,7.2Z" transform="translate(5028.655 -7840.87) rotate(-150)"/><path class="ba" d="M14.408,7.205a7.2,7.2,0,1,0-7.2,7.2,7.2,7.2,0,0,0,7.2-7.2" transform="translate(4895.21 -7626.38) rotate(-150)"/><path class="bb" d="M172.633,74.754,129.475,149.5H43.158L0,74.754,43.158,0h86.317l43.158,74.754" transform="translate(4881.69 -7447.861) rotate(-150)"/><path class="bc" d="M166.972,72.3,125.229,0H41.743L0,72.3l41.743,72.3h83.486l41.743-72.3" transform="translate(4986.727 -7827.936) rotate(-150)"/><path class="bd" d="M14.408,7.2a7.2,7.2,0,1,0-7.2,7.2A7.2,7.2,0,0,0,14.408,7.2Z" transform="translate(4920.478 -7503.466) rotate(-150)"/><path class="be" d="M14.408,7.2a7.2,7.2,0,1,0-7.2,7.2A7.2,7.2,0,0,0,14.408,7.2Z" transform="translate(4920.477 -7588.367) rotate(-150)"/><path class="bf" d="M14.408,7.2a7.2,7.2,0,1,0-7.2,7.2A7.2,7.2,0,0,0,14.408,7.2Z" transform="translate(4846.951 -7630.818) rotate(-150)"/><path class="bg" d="M14.408,7.2a7.2,7.2,0,1,0-7.2,7.205A7.2,7.2,0,0,0,14.408,7.2Z" transform="translate(4846.951 -7461.016) rotate(-150)"/><g transform="translate(5411.325 -7898.514) rotate(-150)"><path class="bh" d="M172.632,74.753l-43.156,74.753H43.158L0,74.753,43.158,0h86.317Zm-169.8,0,41.742,72.3h83.487l41.742-72.3-41.742-72.3H44.572Z" transform="translate(5.789 5.979)"/><path class="bi" d="M14.408,7.2a7.2,7.2,0,1,0-7.2,7.2A7.2,7.2,0,0,0,14.408,7.2Z" transform="translate(0 73.529)"/><path class="bj" d="M14.408,7.2A7.2,7.2,0,1,0,7.2,14.408,7.2,7.2,0,0,0,14.408,7.2Z" transform="translate(42.452 147.055)"/><path class="bk" d="M14.408,7.2a7.2,7.2,0,1,0-7.2,7.205A7.2,7.2,0,0,0,14.408,7.2Z" transform="translate(127.353 147.055)"/><path class="bl" d="M14.408,7.2a7.2,7.2,0,1,0-7.205,7.2A7.2,7.2,0,0,0,14.408,7.2Z" transform="translate(169.804 73.529)"/><path class="bm" d="M14.408,7.206a7.2,7.2,0,1,0-7.2,7.2A7.205,7.205,0,0,0,14.408,7.206Z" transform="translate(127.353)"/><path class="bn" d="M14.408,7.206a7.2,7.2,0,1,0-7.205,7.2A7.207,7.207,0,0,0,14.408,7.206Z" transform="translate(42.452)"/></g><g transform="translate(5068.311 -7418.114) rotate(-150)"><path class="bo" d="M172.634,74.75,129.475,149.5H43.159L0,74.75,43.159,0h86.317Zm-169.8,0,41.742,72.3h83.487L169.8,74.75l-41.742-72.3H44.575Z" transform="translate(5.787 5.979)"/><path class="bp" d="M14.405,7.2a7.2,7.2,0,1,0-7.2,7.2A7.2,7.2,0,0,0,14.405,7.2Z" transform="translate(0 73.526)"/><path class="bq" d="M14.408,7.206a7.2,7.2,0,1,0-7.2,7.2A7.2,7.2,0,0,0,14.408,7.206Z" transform="translate(42.449 147.052)"/><path class="br" d="M14.405,7.206a7.2,7.2,0,1,0-7.2,7.2A7.2,7.2,0,0,0,14.405,7.206Z" transform="translate(127.353 147.052)"/><path class="bs" d="M14.408,7.2a7.2,7.2,0,1,0-7.2,7.2A7.2,7.2,0,0,0,14.408,7.2Z" transform="translate(169.802 73.526)"/><path class="bt" d="M14.405,7.2a7.2,7.2,0,1,0-7.2,7.2A7.2,7.2,0,0,0,14.405,7.2Z" transform="translate(127.353)"/><path class="bu" d="M14.408,7.2a7.2,7.2,0,1,0-7.2,7.2A7.2,7.2,0,0,0,14.408,7.2Z" transform="translate(42.449)"/></g><g transform="translate(5241.172 -7903.533) rotate(-150)"><path class="bv" d="M172.634,74.752l-42.805,74.141-.354.615H43.158L0,74.752,42.805.612,43.158,0h86.317Zm-169.8,0,41.745,72.3h83.485l41.742-72.3-41.742-72.3H44.575Z" transform="translate(5.787 5.976)"/><path class="bw" d="M14.405,7.2a7.2,7.2,0,1,0-7.2,7.206A7.2,7.2,0,0,0,14.405,7.2Z" transform="translate(0 73.526)"/><path class="bx" d="M14.408,7.2a7.2,7.2,0,1,0-7.2,7.2A7.2,7.2,0,0,0,14.408,7.2Z" transform="translate(42.449 147.053)"/><path class="by" d="M14.408,7.2a7.2,7.2,0,1,0-7.2,7.2A7.2,7.2,0,0,0,14.408,7.2Z" transform="translate(127.35 147.053)"/><path class="bz" d="M14.408,7.2A7.2,7.2,0,1,0,7.2,14.408,7.2,7.2,0,0,0,14.408,7.2Z" transform="translate(169.802 73.526)"/><path class="ca" d="M14.408,7.2a7.2,7.2,0,1,0-7.2,7.205A7.2,7.2,0,0,0,14.408,7.2Z" transform="translate(127.35)"/><path class="cb" d="M14.408,7.2a7.2,7.2,0,1,0-7.2,7.205A7.2,7.2,0,0,0,14.408,7.2Z" transform="translate(42.449)"/></g><path class="cc" d="M129.144,149.122h-86.1L0,74.561,43.048,0h86.1l43.048,74.561Z" transform="translate(5286.154 -7429.019) rotate(-150)"/><path class="cd" d="M80.913,93.43H26.971L0,46.714,26.971,0H80.913l26.971,46.714Z" transform="translate(4961.883 -7595.421) rotate(-150)"/><path class="ce" d="M96.093,110.959H32.031L0,55.479,32.031,0H96.093l32.031,55.479Z" transform="translate(5312.871 -7812.888) rotate(-150)"/><g class="cf" transform="translate(5255.793 -7992.074) rotate(-150)"><path class="cg" d="M95.714,41.447,71.785,82.894H23.927L0,41.447,23.927,0H71.785ZM70.569,80.787,93.282,41.447,70.569,2.107H25.142L2.43,41.447,25.142,80.787Z" transform="translate(74.637 47.144)"/><path class="ch" d="M23.321,80.786H69.963L93.284,40.393,69.963,0H23.321L0,40.393Z" transform="translate(0 94.397)"/><path class="ci" d="M23.321,80.786H69.963L93.283,40.393,69.963,0H23.321L0,40.393Z" transform="translate(151.802)"/></g><g transform="translate(5595.517 -7240.066) rotate(-150)"><path class="cj" d="M26.745,92.65H80.237l26.746-46.325L80.237,0H26.745L0,46.325Z" transform="translate(269.67 158.08)"/><path class="ck" d="M26.745,92.65H80.237l26.746-46.324L80.237,0H26.745L0,46.326Z" transform="translate(357.573 111.756)"/><path class="cl" d="M26.745,92.65H80.237l26.745-46.325L80.237,0H26.745L0,46.325Z" transform="translate(0 116.156)"/><path class="cm" d="M26.745,92.649H80.237l26.745-46.325L80.237,0H26.745L0,46.325Z" transform="translate(0 13.906)"/><path class="cn" d="M26.745,92.65H80.237l26.745-46.325L80.237,0H26.745L0,46.325Z" transform="translate(448.174 158.07)"/><path class="co" d="M109.771,47.534,82.33,95.065H27.443L0,47.534,27.443,0H82.33ZM80.935,92.649l26.048-45.115L80.935,2.417h-52.1L2.788,47.534,28.836,92.649Z" transform="translate(446.779 54.191)"/><path class="cp" d="M109.773,47.532,82.33,95.065H27.446L0,47.532,27.446,0H82.33ZM80.935,92.649l26.048-45.117L80.935,2.417h-52.1L2.791,47.532,28.839,92.649Z" transform="translate(536.037 100.517)"/><path class="cq" d="M109.771,47.532,82.328,95.065H27.443L0,47.532,27.443,0H82.328ZM80.935,92.649l26.048-45.117L80.935,2.417h-52.1L2.788,47.532,28.836,92.649Z" transform="translate(712.274 1.208)"/><path class="cr" d="M109.773,47.534,82.328,95.067H27.443L0,47.534,27.443,0H82.328ZM80.935,92.651l26.048-45.118L80.935,2.417h-52.1L2.791,47.534,28.839,92.651Z" transform="translate(625.283 255.13)"/><path class="cs" d="M109.773,47.532,82.33,95.065H27.443L0,47.532,27.443,0H82.33ZM80.935,92.649l26.048-45.117L80.935,2.417h-52.1L2.791,47.532,28.839,92.649Z" transform="translate(356.177 208.807)"/><path class="ct" d="M109.773,47.531,82.33,95.065H27.446L0,47.531,27.446,0H82.33ZM80.937,92.648l26.048-45.117L80.937,2.414h-52.1L2.791,47.531,28.839,92.648Z" transform="translate(87.771 64.224)"/><path class="cu" d="M26.745,92.65H80.237l26.746-46.325L80.237,0H26.745L0,46.325Z" transform="translate(357.573 9.074)"/><path class="cv" d="M26.745,92.649H80.237l26.746-46.324L80.237,0H26.745L0,46.325Z" transform="translate(181.203 111.745)"/><path class="cw" d="M26.746,92.65H80.237l26.746-46.325L80.237,0H26.746L0,46.325Z" transform="translate(537.433 204.405)"/><path class="cx" d="M26.746,92.65H80.237l26.746-46.325L80.237,0H26.746L0,46.325Z" transform="translate(626.677 158.07)"/><path class="cy" d="M26.746,92.65H80.237l26.746-46.325L80.237,0H26.746L0,46.326Z" transform="translate(626.677 55.399)"/><path class="cz" d="M26.746,92.65H80.237l26.746-46.326L80.237,0H26.746L0,46.324Z" transform="translate(537.433)"/><path class="da" d="M26.745,92.649H80.237l26.745-46.325L80.237,0H26.745L0,46.324Z" transform="translate(713.669 106.557)"/><path class="db" d="M26.745,92.649H80.237l26.745-46.325L80.237,0H26.745L0,46.325Z" transform="translate(714.877 207.598)"/></g><g transform="translate(5056.351 -7597.822) rotate(-150)"><path class="dc" d="M12.16,6.081a6.08,6.08,0,1,0-6.08,6.08A6.082,6.082,0,0,0,12.16,6.081Z"/><path class="dd" d="M0,6.08A6.08,6.08,0,1,0,6.08,0,6.079,6.079,0,0,0,0,6.08Z" transform="translate(59.957 0.534)"/><rect class="de" width="4.832" height="2.416" transform="translate(41.876 5.406)"/><rect class="df" width="4.832" height="2.416" transform="translate(51.54 5.406)"/><rect class="dg" width="4.832" height="2.416" transform="translate(12.884 5.406)"/><rect class="dh" width="4.832" height="2.416" transform="translate(32.212 5.406)"/><rect class="di" width="4.833" height="2.416" transform="translate(22.548 5.406)"/></g><g transform="translate(5319.604 -7690.851) rotate(-150)"><path class="dj" d="M1.675,4.872H0V7.289H1.675a6.08,6.08,0,1,0,0-2.417Z" transform="translate(64.064)"/><path class="dk" d="M12.16,6.08a6.08,6.08,0,1,0-6.08,6.08A6.08,6.08,0,0,0,12.16,6.08Z"/><rect class="dl" width="4.832" height="2.416" transform="translate(15.743 4.871)"/><rect class="dm" width="4.832" height="2.416" transform="translate(44.736 4.871)"/><rect class="dn" width="4.832" height="2.416" transform="translate(54.4 4.871)"/><rect class="do" width="4.832" height="2.416" transform="translate(25.408 4.871)"/><rect class="dp" width="4.832" height="2.416" transform="translate(35.071 4.871)"/></g><g transform="translate(5294.632 -7412.387) rotate(-150)"><rect class="dq" width="2.416" height="4.832" transform="translate(115.173 36.287) rotate(-29.985)"/><rect class="dr" width="4.832" height="2.417" transform="matrix(0.5, -0.866, 0.866, 0.5, 5.875, 44.638)"/><rect class="ds" width="4.832" height="2.417" transform="matrix(0.5, -0.866, 0.866, 0.5, 1.043, 53.008)"/><rect class="dt" width="2.416" height="4.832" transform="translate(120.006 44.657) rotate(-29.984)"/><rect class="du" width="4.832" height="2.416" transform="translate(10.707 36.269) rotate(-60.003)"/><rect class="dv" width="2.417" height="4.832" transform="translate(110.341 27.919) rotate(-30.004)"/><rect class="dw" width="2.416" height="4.832" transform="matrix(0.866, -0.5, 0.5, 0.866, 9.664, 75.139)"/><rect class="dx" width="2.416" height="4.832" transform="translate(19.328 91.878) rotate(-29.993)"/><rect class="dy" width="2.417" height="4.832" transform="matrix(0.866, -0.5, 0.5, 0.866, 0, 58.401)"/><rect class="dz" width="2.416" height="4.832" transform="translate(4.832 66.77) rotate(-29.994)"/><rect class="ea" width="4.832" height="2.416" transform="matrix(0.5, -0.866, 0.866, 0.5, 15.54, 27.9)"/><rect class="eb" width="2.417" height="4.832" transform="translate(14.496 83.508) rotate(-29.989)"/><path class="ec" d="M.321,1.208,2.065,4.232A6.054,6.054,0,1,0,6.08,2.687a6.053,6.053,0,0,0-1.92.337L2.414,0Z" transform="translate(23.839 99.038)"/><rect class="ed" width="4.832" height="2.416" transform="translate(49.147)"/><rect class="ee" width="4.832" height="2.416" transform="translate(78.139)"/><rect class="ef" width="4.832" height="2.416" transform="translate(68.475)"/><rect class="eg" width="4.832" height="2.416" transform="translate(58.811)"/><rect class="eh" width="4.833" height="2.416" transform="translate(39.482)"/><path class="ei" d="M0,2.792,2.093,4l.914-1.583H4.615V0h-3Z" transform="translate(30.036)"/><rect class="ej" width="2.416" height="4.832" transform="translate(105.509 19.55) rotate(-29.997)"/><rect class="ek" width="4.832" height="2.417" transform="translate(25.204 11.161) rotate(-60.003)"/><rect class="el" width="2.416" height="4.832" transform="translate(100.677 11.18) rotate(-29.999)"/><rect class="em" width="4.832" height="2.416" transform="translate(20.372 19.53) rotate(-59.998)"/><rect class="en" width="4.832" height="2.416" transform="translate(87.803)"/><rect class="eo" width="2.416" height="4.832" transform="translate(95.845 2.811) rotate(-29.994)"/><path class="ep" d="M0,6.081A6.08,6.08,0,1,0,6.08,0,6.08,6.08,0,0,0,0,6.081Z" transform="translate(122.219 51.186)"/></g><g transform="translate(5310.683 -8051.032) rotate(-150)"><rect class="eq" width="2.531" height="5.061" transform="translate(24.165 99.463) rotate(-29.974)"/><rect class="er" width="2.531" height="5.061" transform="translate(19.103 90.698) rotate(-30.002)"/><rect class="es" width="2.531" height="5.06" transform="translate(8.981 73.167) rotate(-29.995)"/><rect class="et" width="2.531" height="5.061" transform="translate(3.921 64.4) rotate(-29.977)"/><rect class="eu" width="2.531" height="5.061" transform="translate(117.909 36.451) rotate(-29.984)"/><rect class="ev" width="5.061" height="2.531" transform="translate(9.463 41.221) rotate(-60.002)"/><path class="ew" d="M0,3.241,1.39,5.648,3.582,4.383l-.66-1.143L4.063,1.265,1.871,0Z" transform="translate(0 54.369)"/><rect class="ex" width="5.061" height="2.53" transform="translate(36.772 112.691)"/><rect class="ey" width="5.062" height="2.531" transform="translate(4.401 49.987) rotate(-59.998)"/><rect class="ez" width="5.061" height="2.53" transform="translate(46.894 112.691)"/><rect class="fa" width="5.061" height="2.53" transform="translate(67.138 112.691)"/><rect class="fb" width="5.061" height="2.53" transform="translate(77.26 112.691)"/><rect class="fc" width="2.531" height="5.061" transform="matrix(0.866, -0.5, 0.5, 0.866, 29.226, 108.229)"/><rect class="fd" width="5.061" height="2.53" transform="translate(57.015 112.691)"/><rect class="fe" width="2.531" height="5.061" transform="matrix(0.866, -0.5, 0.5, 0.866, 14.042, 81.933)"/><rect class="ff" width="5.061" height="2.53" transform="translate(78.223)"/><path class="fg" d="M0,1.9,2.237,5.772,4.428,4.507,1.826,0H.508V1.6Z" transform="translate(97.958)"/><rect class="fh" width="5.061" height="2.531" transform="translate(14.523 32.455) rotate(-59.998)"/><rect class="fi" width="5.062" height="2.53" transform="translate(68.1)"/><rect class="fj" width="5.061" height="2.53" transform="translate(37.735)"/><rect class="fk" width="5.061" height="2.53" transform="translate(47.857)"/><rect class="fl" width="5.061" height="2.53" transform="translate(57.978)"/><rect class="fm" width="5.061" height="2.53" transform="translate(88.344)"/><rect class="fn" width="5.061" height="2.531" transform="translate(19.584 23.689) rotate(-60.002)"/><rect class="fo" width="2.531" height="5.062" transform="translate(112.847 27.687) rotate(-30.007)"/><rect class="fp" width="5.061" height="2.531" transform="translate(29.706 6.157) rotate(-60)"/><rect class="fq" width="2.53" height="5.061" transform="translate(107.787 18.92) rotate(-29.982)"/><rect class="fr" width="2.531" height="5.061" transform="translate(102.726 10.154) rotate(-29.977)"/><rect class="fs" width="5.061" height="2.531" transform="translate(24.645 14.923) rotate(-60.001)"/><path class="ft" d="M0,6.081A6.08,6.08,0,1,0,6.08,0,6.079,6.079,0,0,0,0,6.081Z" transform="translate(120.516 42.888)"/><path class="fu" d="M2.241,4.343H0v2.53H2.038a6.084,6.084,0,1,0,.2-2.53Z" transform="translate(87.381 108.348)"/></g><path class="fv" d="M117.687,0H39.229L0,67.947l39.229,67.947h78.458l39.229-67.947Z" transform="translate(5519.978 -7698.018) rotate(-150)"/><path class="fw" d="M117.687,0H39.229L0,67.947l39.229,67.947h78.458l39.229-67.947Z" transform="translate(5097.145 -7610.188) rotate(-150)"/><path class="fx" d="M117.687,0H39.229L0,67.946l39.229,67.947h78.458l39.229-67.947Z" transform="translate(4911.083 -7686.89) rotate(-150)"/><path class="fy" d="M117.687,0H39.229L0,67.947l39.229,67.946h78.458l39.229-67.946Z" transform="translate(5412.468 -7246.567) rotate(-150)"/><path class="fz" d="M117.687,0H39.229L0,67.947l39.229,67.946h78.458l39.229-67.946Z" transform="translate(5445.882 -7826.451) rotate(-150)"/><path class="ga" d="M64.24,0H21.413L0,37.089,21.413,74.179H64.24L85.654,37.089Z" transform="translate(5726.537 -7439.355) rotate(-150)"/><path class="gb" d="M64.241,0H21.414L0,37.089,21.414,74.178H64.241L85.654,37.089Z" transform="translate(5689.731 -7518.257) rotate(-150)"/><path class="gc" d="M64.24,0H21.413L0,37.089,21.413,74.179H64.24L85.654,37.089Z" transform="translate(5236.866 -7341.566) rotate(-150)"/><path class="gd" d="M64.241,0H21.413L0,37.089,21.413,74.179H64.241L85.654,37.089Z" transform="translate(5200.061 -7420.467) rotate(-150)"/><path class="ge" d="M64.24,0H21.414L0,37.089,21.414,74.179H64.24L85.654,37.089Z" transform="translate(5811.627 -7686.88) rotate(-150)"/><path class="gf" d="M64.241,0H21.414L0,37.09,21.414,74.179H64.241L85.654,37.09Z" transform="translate(5776.222 -7511.148) rotate(-150)"/><path class="gg" d="M64.24,0H21.413L0,37.089,21.413,74.179H64.24L85.654,37.089Z" transform="translate(5150.294 -7348.721) rotate(-150)"/><path class="gh" d="M119.219,137.662H39.74L0,68.833,39.74,0h79.479l39.74,68.833ZM40.761,135.9H118.2l38.719-67.062L118.2,1.77H40.761L2.042,68.833Z" transform="translate(5180.041 -8097.138) rotate(-150)"/><path class="gi" d="M119.219,137.66H39.74L0,68.83,39.74,0h79.479l39.74,68.83Zm-78.458-1.769H118.2L156.916,68.83,118.2,1.767H40.761L2.042,68.83Z" transform="translate(5823.5 -7303.896) rotate(-150)"/><path class="gj" d="M119.219,137.663H39.737l-.252-.444L0,68.83,39.737,0h79.482l.254.441L158.958,68.83Zm-78.458-1.77H118.2L156.916,68.83,118.2,1.767H40.761L2.042,68.83Z" transform="translate(5333.294 -7380.948) rotate(-150)"/><path class="gk" d="M80.609,93.079H26.868l-.252-.441L0,46.539,26.868,0H80.609l.254.443,26.614,46.1Zm-52.717-1.77H79.586l25.849-44.771L79.586,1.77H27.891L2.042,46.539Z" transform="translate(5318.614 -7638.218) rotate(-150)"/><path class="gl" d="M80.609,93.081H26.868l-.254-.444L0,46.541,26.868,0H80.609l.254.444,26.614,46.1Zm-52.72-1.77h51.7l25.849-44.771L79.586,1.77h-51.7L2.04,46.541Z" transform="translate(5213.604 -7638.93) rotate(-150)"/><path class="gm" d="M80.609,93.079H26.87l-.254-.442L0,46.541,26.87,0H80.609l.254.443,26.616,46.1Zm-52.715-1.77H79.588l25.849-44.768L79.588,1.77H27.894L2.042,46.541Z" transform="translate(5030.259 -7751.981) rotate(-150)"/><path class="gn" d="M23.244,11.622A11.622,11.622,0,1,1,11.622,0,11.621,11.621,0,0,1,23.244,11.622Z" transform="translate(5194.589 -7637.51) rotate(-150)"/><path class="go" d="M23.246,11.625A11.623,11.623,0,1,1,11.622,0,11.624,11.624,0,0,1,23.246,11.625Z" transform="translate(5303.134 -7385.96) rotate(-150)"/><path class="gp" d="M23.244,11.622A11.622,11.622,0,1,1,11.622,0,11.622,11.622,0,0,1,23.244,11.622Z" transform="translate(5146.701 -8260.904) rotate(-150)"/><path class="gq" d="M16.436,8.22A8.218,8.218,0,1,1,8.217,0,8.217,8.217,0,0,1,16.436,8.22Z" transform="translate(5055.651 -7781.57) rotate(-150)"/><path class="gr" d="M16.436,8.22A8.218,8.218,0,1,1,8.219,0,8.215,8.215,0,0,1,16.436,8.22Z" transform="translate(5252.697 -7667.806) rotate(-150)"/><path class="gs" d="M16.438,8.217A8.219,8.219,0,1,1,8.219,0,8.219,8.219,0,0,1,16.438,8.217Z" transform="translate(5301.546 -7546.321) rotate(-150)"/><path class="gt" d="M16.436,8.22A8.218,8.218,0,1,1,8.217,0,8.217,8.217,0,0,1,16.436,8.22Z" transform="translate(5664.727 -7429.92) rotate(-150)"/><path class="gu" d="M16.438,8.217A8.219,8.219,0,1,1,8.219,0,8.219,8.219,0,0,1,16.438,8.217Z" transform="translate(4836.68 -7629.794) rotate(-150)"/><path class="gv" d="M16.436,8.22A8.218,8.218,0,1,1,8.219,0,8.218,8.218,0,0,1,16.436,8.22Z" transform="translate(4912.791 -7682.526) rotate(-150)"/></g></svg>